# xmcd CD database file
#
# Track frame offsets:
#	182
#	19275
#	35215
#	62022
#
# Disc length: 1040 seconds
#
# Revision: 1
# Processed by: cddbd v1.5PL3 Copyright (c) Steve Scherf et al.
# Submitted via: CDex 1.51
#
DISCID=33040e04
DTITLE=Jonny Lang - Lie To Me (Single)
DYEAR=1997
DGENRE=Blues
TTITLE0=Lie to Me
TTITLE1=Hit the Ground Running
TTITLE2=A Quitter Never Wins
TTITLE3=Back for a Taste of Your Love
EXTD=LP versions YEAR: 1997
EXTT0=
EXTT1=
EXTT2=
EXTT3=
PLAYORDER=
